
<svg xmlns="http://www.w3.org/2000/svg" xmlns:xlink="http://www.w3.org/1999/xlink" preserveAspectRatio="xMidYMid meet" version="1.0" viewBox="245.3 323.2 1962.0 1806.1" zoomAndPan="magnify" style="fill: rgb(0, 0, 0);" original_string_length="2413"><g id="__id0_szz6c16txs" style="fill: rgb(0, 0, 0);"><path d="M 353.496094 699.726562 C 353.496094 551.789062 473.863281 431.378906 621.804688 431.378906 L 1659.742188 431.378906 C 1807.683594 431.378906 1928.050781 551.789062 1928.050781 699.726562 L 1928.050781 1339.621094 C 1928.050781 1346.890625 1927.714844 1355.359375 1927.535156 1362.851562 C 1927.238281 1374.601562 1926.902344 1384.289062 1928.050781 1392.851562 C 1928.511719 1432.800781 1932.980469 1609.890625 1973.402344 1789.621094 C 1858.097656 1711.75 1682.925781 1617.378906 1500.386719 1607.96875 L 621.804688 1607.96875 C 473.863281 1607.96875 353.496094 1487.601562 353.496094 1339.621094 Z M 2123.128906 1914.410156 C 2037.4375 1695.160156 2036.191406 1388 2036.191406 1384.890625 L 2036.191406 1344.171875 C 2036.191406 1342.601562 2036.191406 1341.109375 2036.191406 1339.621094 L 2036.191406 699.726562 C 2036.191406 492.097656 1867.332031 323.222656 1659.742188 323.222656 L 621.804688 323.222656 C 414.167969 323.222656 245.25 492.097656 245.25 699.726562 L 245.25 1339.621094 C 245.25 1547.261719 414.167969 1716.171875 621.804688 1716.171875 L 1497.542969 1716.089844 C 1764.566406 1730 2033.6875 1971.679688 2036.371094 1974.109375 L 2207.25 2129.28125 L 2123.128906 1914.410156" style="fill: inherit;"/><path d="M 1515.03125 1160.75 C 1468.308594 1160.75 1430.519531 1198.53125 1430.519531 1245.160156 C 1430.519531 1291.75 1468.308594 1329.488281 1515.03125 1329.488281 C 1561.570312 1329.488281 1599.308594 1291.75 1599.308594 1245.160156 C 1599.308594 1198.53125 1561.570312 1160.75 1515.03125 1160.75" style="fill: inherit;"/><path d="M 1148.46875 1160.75 C 1101.921875 1160.75 1064.101562 1198.53125 1064.101562 1245.160156 C 1064.101562 1291.75 1101.921875 1329.488281 1148.46875 1329.488281 C 1195.101562 1329.488281 1232.890625 1291.75 1232.890625 1245.160156 C 1232.890625 1198.53125 1195.101562 1160.75 1148.46875 1160.75" style="fill: inherit;"/><path d="M 782.085938 1160.75 C 735.453125 1160.75 697.714844 1198.53125 697.714844 1245.160156 C 697.714844 1291.75 735.453125 1329.488281 782.085938 1329.488281 C 828.675781 1329.488281 866.417969 1291.75 866.417969 1245.160156 C 866.417969 1198.53125 828.675781 1160.75 782.085938 1160.75" style="fill: inherit;"/></g></svg>