<?xml version="1.0" encoding="UTF-8"?><svg xmlns="http://www.w3.org/2000/svg" xmlns:xlink="http://www.w3.org/1999/xlink" height="419.2" preserveAspectRatio="xMidYMid meet" version="1.0" viewBox="-1.5 -2.4 468.9 419.2" width="468.9" zoomAndPan="magnify"><g id="change1_1"><path d="M390.19,94.82c-0.56-2.53,1.24-5.47,3.05-7.19c1.6-1.52,3.37-2.51,5.44-3.24c6.26-2.2,14.11,0.43,17.32,6.35 c1.95,3.6,2.19,7.71,1.24,11.64c-0.52,2.17-1.46,4.28-2.54,6.22c-0.74,1.32-1.65,2.55-2.6,3.72c-0.4,0.49-0.79,1.01-1.28,1.42 c-0.49,0.4-0.99,0.84-1.53,1.17c-0.49,0.3-1.22,0.52-1.81,0.74c-1.53,0.57-3.45-0.1-4.56-1.2c-1.25-1.25-1.53-2.88-1.2-4.56 c0.4-2.06,1.69-3.68,2.76-5.42c0.65-1.06,1.23-2.16,1.76-3.29c0.31-0.85,0.56-1.72,0.73-2.61c0.03-0.41,0.03-0.83,0.01-1.24 c-0.08-0.39-0.19-0.77-0.31-1.14c-0.14-0.25-0.28-0.5-0.44-0.75c-0.18-0.2-0.38-0.4-0.58-0.58c-0.28-0.19-0.57-0.36-0.87-0.51 c-0.4-0.14-0.8-0.25-1.22-0.33c-0.43-0.03-0.87-0.03-1.3,0c-0.47,0.1-0.92,0.22-1.37,0.37c-0.6,0.3-1.2,0.62-1.74,1.01 c-0.02,0.02-0.04,0.04-0.07,0.06c-0.28,0.25-0.57,0.52-0.89,0.72c-0.18,0.16-0.35,0.31-0.52,0.48c-0.53,0.5-1.13,0.86-1.75,1.11 c-0.93,1.1-2.46,1.52-3.8,0.95C390.62,98.07,389.78,96.41,390.19,94.82z M418.7,140.16c4.37-1.04,8.52-2.69,12.77-4.1 c1.84-0.61,3.7-1.2,5.62-1.48c0.19-0.03,0.21-0.03,0.69-0.06c0.41-0.03,0.83-0.04,1.25-0.04c1.22,0.01,1.26,0.02,2.28,0.29 c0.97,0.25,1.38,0.4,2.14,0.82c0.11,0.06,0.47,0.29,0.55,0.33c0.29,0.24,0.55,0.51,0.81,0.78c0.03,0.03,0.02,0.02,0.04,0.03 c0.01,0.02,0,0.01,0.02,0.04c0.1,0.15,0.2,0.31,0.3,0.47c0.16,0.26,0.3,0.54,0.42,0.82c0.02,0.09,0.15,0.48,0.18,0.61 c0.07,0.26,0.24,1.55,0.18,0.75c0.03,0.37,0.05,0.74,0.04,1.11c0,0.18-0.05,0.49-0.06,0.6c-0.08,0.35-0.17,0.68-0.27,1.03 c0,0.01,0,0.01-0.01,0.02c-0.08,0.17-0.17,0.34-0.26,0.5c-0.09,0.16-0.34,0.47-0.37,0.52c-0.2,0.22-0.4,0.44-0.61,0.64 c-0.12,0.11-0.61,0.52-0.76,0.65c-0.1,0.06-0.26,0.17-0.27,0.17c-0.24,0.14-0.48,0.3-0.72,0.44c-3.89,2.23-7.82,2.78-12.5,2.8 c-2.4,0.01-4.7,2.1-4.59,4.59c0.12,2.64,2.02,4.4,4.59,4.59c3.02,0.22,5.42-0.17,8.57-1c2.53-0.66,5.1-1.64,7.33-3.01 c4.4-2.69,7.69-6.47,8.07-11.78c0.33-4.69-2.12-9.56-6.11-12.04c-4.35-2.69-9.8-2.69-14.58-1.38c-5.67,1.55-10.81,4.57-16.34,6.53 C413.51,135.67,414.92,141.06,418.7,140.16z M447.29,222.53c-6.61-12.51-22.01-32.83-38.4-26.59 c-14.2-54.96-59.33-96.91-113.34-112.41c-14.72-4.22-30.25-6.27-45.46-7.67c-15.65-1.44-31.38-1.45-46.95,0.51 c0.03-3.4-0.35-6.84-0.7-10.01c-0.39-3.58-0.8-7.28-1.41-10.91c8.09,0.99,16.39,0.45,24.33-1.21c10.62-2.22,21.43-6.68,29.14-14.53 c4.59-4.67,8.82-10.33,9.14-17.13c0.29-5.99-2.7-11.84-7.01-15.85c-9.85-9.16-23.69-8.23-34.66-1.62 c-11.72,7.06-19.05,18.68-28.25,28.45c-4.38-8.79-10.32-17.22-18.17-23.09c-8.63-6.45-20.71-8.94-30.74-4.39 c-18.18,8.24-16.97,36.33,0.23,44.86c9.75,4.83,22.18,3.76,31.06-2.5c0.01,0,0.01-0.01,0.01-0.01c0.75,0.3,1.49,0.62,2.24,0.9 c2.26,0.82,4.55,1.32,6.89,1.68c0.42,0.34,0.89,0.65,1.46,0.88c1.03,0.41,2.08,0.73,3.13,1.08c1.3,4.77,2.71,9.5,3.7,14.37 c0.73,3.59,1.23,6.87,1.56,10.25c-34.95,5.93-70.17,20.99-97.01,44.27c-30.28,26.27-51.23,63.13-57.25,102.83 c-0.04,0.27,0.01,0.49,0.03,0.74c-0.67,0.31-1.21,0.88-1.38,1.78c-1.01,5.41-1.67,10.9-2.16,16.42c-0.78-0.5-1.74-0.68-2.83-0.28 c-14.21,5.29-24.25,18.42-29.63,32.15c-6.38,16.29-5.9,34.15-1.97,50.97c4.1,17.53,11.14,35.9,20.4,51.39 c7.81,13.07,19.4,22.95,34.99,24.26c14.03,1.18,29.93-5.02,37.74-17.15c6.78,8.26,15.89,14.46,25.38,19.27 c11.51,5.84,24.12,10.1,37,11.44c10.01,1.04,20.53-0.73,30.55-1.26c14.39-0.76,28.79-1.35,43.17-2.16 c15.02-0.85,29.98-1.85,44.92-3.71c0.2-0.03,0.35-0.13,0.54-0.18c15.14-0.77,30.3-1.66,45-5.03c9.27-2.13,18.3-5.81,26.97-9.66 c9.12-4.05,17.88-9.05,25.45-15.6c1.13-0.98,2.24-2.03,3.32-3.12c0.48,0.36,1.08,0.65,1.83,0.81c32.85,6.87,65.48-14.61,75.76-45.64 C467.39,295.5,464.31,254.74,447.29,222.53z" fill="#EDD7CA"/></g><g id="change2_1"><path d="M224.03,139.75c-0.09-0.12-0.17-0.25-0.25-0.38c-0.1-0.12-0.2-0.24-0.31-0.34 C223.66,139.27,223.85,139.51,224.03,139.75z M325.46,204.76c0.34,0.31,0.68,0.63,1.01,0.94c0.12-0.02,0.24-0.02,0.35-0.03 c-1.16-1.12-2.28-2.28-3.43-3.42C324.09,203.08,324.77,203.93,325.46,204.76z M386.43,248.73c-0.53,0.17-1.09,0.22-1.68,0.12 c0.67,0.62,1.29,1.26,1.8,1.96C386.5,250.12,386.48,249.42,386.43,248.73z M385.61,239.92c-2.99-2.29-6.11-4.43-9.32-6.47 c-4.6-2.92-9.27-5.76-13.63-8.93c-9.58-6.96-18.68-14.56-27.46-22.5c-1.81-1.63-3.56-3.33-5.34-4.99 c-15.64-14.53-30.56-30.01-43.89-46.65c-1.16-1.45-3.11-0.92-4.2,0.27c-1.24-1.15-3.22-1.52-4.94-1.03c0.1-3.92-0.22-7.8-1.25-11.54 c-1.03-3.75-6.84-2.17-5.84,1.61c2.26,8.54,0.45,17.96-2.43,26.55c-0.93,2.78-1.97,5.48-3.03,8.03 c-5.64,13.61-13.9,26.09-23.57,37.19c-15.15-13.07-25.56-31.06-27.7-51.2c-0.45-4.27-6.39-8.45-9.82-4.07 c-10.33,13.17-19.49,27.32-26.99,42.3c-3.69,7.38-6.94,14.97-9.57,22.8c-2.03,6.06-3.16,12.09-4.07,18.27 c-10.81-18.82-14.44-40.83-7.36-61.84c0.48-1.41-0.07-2.46-0.99-3.04c-1.4-1.59-3.97-2.3-5.66-0.42c-1.62,1.8-3.2,3.63-4.77,5.48 c-24.91,29.31-43.62,64-54.3,100.91c-1.06,2.76-2.09,5.54-3.05,8.33c-2.25,6.47-4.15,13.03-5.67,19.71 c-0.51,2.24-1.03,4.55-1.49,6.88c-0.33,0.04-0.66,0.09-0.99,0.11c-0.54-2.51-1.06-5.02-1.54-7.54c-4.65-24.61-6.49-50.18-3.46-75.11 c1.03-8.46,2.64-17.09,4.9-25.47c1.24-0.33,2.37-1.16,2.95-2.72c1.84-5.01,4.04-9.88,6.48-14.63c0.39,1.63,2.43,2.72,4.18,1.29 c2.89-2.35,6.3-4.3,9.31-6.56c2.92-2.18,5.85-4.33,8.88-6.34c6.28-4.16,12.78-7.9,19.57-11.18c5.08-2.45,10.34-4.48,15.68-6.3 c1.6-0.54,3.17-1.16,4.79-1.64c3.5-1.05,7.04-1.97,10.6-2.74c3.71-0.81,7.32-1.06,10.21-3.76c1.63-1.52,1.43-4.9-0.76-5.88 c-3.69-1.67-6.96-0.91-10.79-0.07c-3.98,0.88-7.93,1.94-11.82,3.16c-0.3,0.09-0.6,0.21-0.9,0.3c-7.24,2.32-14.33,5.2-21.14,8.57 c-6.91,3.43-13.6,7.48-19.78,12.09c-3.2,2.39-6.37,4.87-9.34,7.55c-2.38,2.15-4.25,4.51-6.19,6.91c8-14.16,18.47-26.98,30.58-37.71 c10.28-9.11,22.07-17.16,34.84-22.65c9.44-4.06,19.42-6.72,29.74-7.34c3.39-0.2,4.12-4.28,2.17-5.99c2.28-0.56,4.56-1.13,6.84-1.66 c-1.03,2.04,0.9,5.47,3.49,4.4c10.19-4.2,20.66-6.7,31.19-7.77c15.81-1.6,31.76,0.11,47.15,4.46c20.01,5.66,39.04,15.78,55.51,28.88 c-0.34-0.11-0.68-0.23-1.02-0.35c-3.87-1.31-7.74-2.57-11.63-3.8c-1.95-0.62-3.91-1.13-5.88-1.67c-1.08-0.3-2.25-0.8-3.36-0.94 c-1.01-0.13-1.63-0.06-2.61-0.37c-2.38-0.74-4.07,3.04-1.73,4.1c1.07,0.48,1.91,1.26,2.94,1.83c0.88,0.49,1.82,0.89,2.73,1.34 c1.95,0.97,3.88,1.92,5.87,2.81c3.71,1.66,7.44,3.28,11.18,4.87c3.85,1.64,7.7,3.31,11.57,4.91c2.98,1.23,6.05,2.93,9.19,3.07 c6.19,6.52,11.81,13.47,16.7,20.77c7.52,11.24,13.74,23.75,16.85,36.99c0,0.04-0.01,0.07,0,0.12 C383.76,222.52,384.77,231.21,385.61,239.92z M225.56,143.54c-0.04-0.33-0.08-0.69-0.15-1.01c-0.08-0.35-0.3-0.75-0.45-1.08 c-0.04-0.09-0.08-0.17-0.12-0.26c-0.08-0.17-0.16-0.34-0.24-0.51c-0.08-0.17-0.16-0.34-0.24-0.51c-0.14-0.29-0.34-0.54-0.55-0.79 c-0.17-0.25-0.34-0.5-0.5-0.75c-0.31-0.48-0.76-0.91-1.27-1.21c-0.65-0.99-1.91-1.38-3-0.93c-0.47,0.2-0.93,0.54-1.18,1.01 c-0.08,0.2-0.17,0.39-0.25,0.59c-0.08,0.28-0.02,0.56,0,0.84c-0.19,0.42-0.31,0.86-0.31,1.33c0.11,1.02,0.11,2.05,0.35,3.06 c0.09,0.37,0.17,0.75,0.27,1.12c0.12,0.46,0.34,0.92,0.58,1.34c0.39,0.67,0.91,1.22,1.58,1.62c0.29,0.17,0.75,0.37,0.97,0.42 c0.5,0.11,0.94,0.13,1.44,0.06c0.45-0.06,0.9-0.18,1.3-0.42c0.24-0.19,0.48-0.37,0.72-0.56c0.35-0.32,0.59-0.7,0.74-1.14 c0.08-0.19,0.18-0.4,0.25-0.6C225.66,144.58,225.63,144.09,225.56,143.54z M243.16,131.18c0.25,0.79,0.72,1.37,1.41,1.83 c0.52,0.35,1.02,0.71,1.52,1.07c0.13,0.13,0.26,0.27,0.4,0.4c0.38,0.37,0.84,0.67,1.29,0.96c0.41,0.26,0.83,0.52,1.23,0.79 c0.27,0.23,0.57,0.49,0.79,0.6c0.66,0.35,1.44,0.61,2.2,0.56c0.74,0,1.42-0.19,2.06-0.56c0.61-0.36,1.1-0.85,1.46-1.46 c0.72-1.22,0.77-2.9,0-4.12c-0.62-0.98-1.41-1.65-2.53-1.99c-0.13-0.04-0.26-0.07-0.4-0.11c-0.29-0.08-0.56-0.16-0.84-0.27 c-0.5-0.19-1.02-0.45-1.55-0.58c-0.27-0.07-0.55-0.06-0.82-0.11c-0.27-0.05-0.53-0.14-0.79-0.22c-0.56-0.17-1.11-0.38-1.67-0.58 c-0.69-0.24-1.75-0.08-2.36,0.31c-0.57,0.37-0.99,0.84-1.25,1.47C243.06,129.79,242.95,130.53,243.16,131.18z" fill="#B17E62"/></g><g id="change1_2"><path d="M296.41,172.63c8.54,10.28,17.52,20.17,26.99,29.61c0.69,0.84,1.37,1.68,2.06,2.52 C314.85,194.96,304.92,184.21,296.41,172.63z M292.3,196.4c0.04,0.01,0.08,0.01,0.13,0.01C292.29,196.4,292.27,196.4,292.3,196.4z M387.61,282.23c-0.08,10.98-0.63,21.95-1.69,32.88c-0.82,8.41-2.38,16.71-3.62,25.05c-0.27,1.79-0.48,3.58-0.7,5.37 c-0.73,0.62-1.35,1.41-1.65,2.55c-0.76,2.92-1.73,5.63-2.9,8.19c-2.72,5.96-6.57,10.99-11.71,15.41c-0.01,0.01-0.02,0.01-0.03,0.02 c-0.09,0.08-0.18,0.16-0.26,0.24c-1.03,0.87-2.1,1.72-3.23,2.54c-6.47,4.72-13.59,8.58-20.91,11.93c-3.17,1.45-6.37,2.84-9.58,4.12 c-11.82,4.7-24.17,6.68-36.76,8.04c-5.36,0.57-10.72,1.12-16.08,1.68c-0.43-0.11-0.87-0.22-1.42-0.18 c-11.6,0.74-23.2,1.47-34.8,2.22c-14.69,0.96-29.38,1.96-44.06,3.13c-10.39,0.83-20.75,1.82-31.12,2.86 c-11.58,1.16-23.42-1.7-34.22-5.72c-0.53-0.2-1.06-0.43-1.59-0.64c-7.13-2.78-14.26-6.45-20.54-11.15 c-0.22-0.29-0.42-0.59-0.64-0.88c-0.2,0-0.4-0.03-0.6-0.05c-3.59-2.81-6.85-5.98-9.61-9.54c-0.31-0.58-0.6-1.17-0.89-1.76 c-0.15-0.15-0.29-0.31-0.43-0.47c0-0.4-0.03-0.8-0.18-1.24c-3.91-11.02-9.01-21.52-12.57-32.71c-1.15-3.6-2.2-7.23-3.21-10.87 c-1.39-5.01-2.66-10.05-3.79-15.13c0.15-0.85,0.3-1.7,0.47-2.54c0.46-2.34,0.98-4.65,1.49-6.88c1.52-6.68,3.42-13.24,5.67-19.71 c0.97-2.79,1.99-5.56,3.05-8.33c-0.34,1.17-0.7,2.34-1.02,3.52c-1.05,3.83,4.85,5.45,5.95,1.64c0.31-1.06,0.66-2.1,0.98-3.15 c0.96,0.2,1.95-0.14,2.56-1.38c3.5-7.16,5.8-14.88,9.17-22.11c1.71-3.66,3.54-7.27,5.45-10.83c1.89-3.51,3.87-6.97,5.93-10.39 c4.03-6.71,8.34-13.26,12.72-19.75c1.54-2.28,3.18-4.56,4.82-6.85c1.3-1.82,2.58-3.66,3.83-5.51c-0.05,0.51-0.07,1.02-0.11,1.52 c-0.29,4.52-0.07,9.07,0.53,13.41c0.48,3.46,1.29,7.02,2.38,10.51c1.34,4.26,3.14,8.41,5.5,12.14c1.32,2.08,2.8,4.03,4.46,5.79 c-0.97,0.5-1.91,1.02-2.79,1.58c-0.28,0.18-0.53,0.39-0.81,0.57c-0.21,0.14-0.41,0.3-0.62,0.44c-8.78,6.13-15.24,15.72-16.16,26.48 c-0.14,1.67,0.61,2.83,1.68,3.56c2.33,1.59,6.37,0.97,7.33-2.34c1.03-3.53,2.4-6.97,4.2-10.14c2.34-4.13,5.4-7.79,9.5-10.49 c3.92-2.58,8.39-4.31,13.06-4.96c0.01,0,0.03-0.01,0.04-0.01c0.14-0.02,0.28-0.01,0.41-0.03c-4.71,4.25-7.49,10.39-9.59,16.29 c-4.73,13.28-6.27,28.93-1.69,42.47c2.87,8.49,9.29,17.59,17.57,20.28c4.04,1.31,8.52,1.12,13.25-1.46 c5.14-2.8,7.97-8.44,10.03-13.69c1.56-3.95,2.55-8.11,3.2-12.33c0.41-2.67,0.71-5.36,0.85-8.04c0.7-14.28-1.77-31.08-10.38-42.91 c-0.66-0.9-1.52-1.38-2.41-1.54c-1.24-1.17-2.64-2.04-4.11-2.67c-0.18-0.69-0.56-1.34-1.22-1.8c-1.33-0.93-2.77-1.66-4.28-2.23 c-3.65-1.38-7.74-1.77-11.85-1.44c1.64-6.72,4.32-13.35,6.82-19.74c1.35-3.46,2.85-6.88,4.43-10.25c0.28-0.18,0.54-0.36,0.83-0.54 c1.11-0.68,2.16-1.43,3.31-2.06c0.23-0.12,0.46-0.24,0.69-0.36c0.35-0.18,0.7-0.37,1.05-0.54c0.26-0.13,0.53-0.25,0.79-0.37 c0.13-0.06,0.16-0.08,0.21-0.1c0.01,0,0.02,0,0.1-0.04c0.97-0.38,1.98-0.69,2.99-0.98c1.43-0.41,2.87-0.76,4.32-1.02 c0.29-0.05,0.57-0.1,0.86-0.15c0.04-0.01,0.06-0.01,0.09-0.02c0.02,0,0.03,0,0.06,0c0.57-0.04,1.15-0.1,1.72-0.16 c0.66-0.07,2.33-0.29,1.08-0.14c0.59-0.07,1.19-0.14,1.78-0.23c0.1-0.01,0.15-0.02,0.21-0.03c0.35-0.03,0.7-0.07,1.05-0.1 c2.38-0.21,4.34-1.65,4.67-4.12c0.28-2.1-1.06-4.88-3.41-5.22c-1.47-0.22-2.96-0.41-4.45-0.42c-0.24,0-0.48-0.04-0.72-0.03 c-1.72,0.08-3.52,0.44-5.2,0.84c-1.59,0.38-3.12,0.91-4.62,1.53c4.35-7.74,9.16-15.18,14.33-22.38c0.02,0.08,0.04,0.17,0.06,0.25 c0.25,0.95,0.5,1.87,0.71,2.67c1.54,5.85,3.48,11.63,6.07,17.1c0.09,0.19,0.16,0.38,0.25,0.56c2.44,5.06,5.67,9.79,9.69,13.73 c0.07,0.07,0.15,0.14,0.22,0.2c3.82,3.7,8.77,7.4,14.21,7.82c0.52,0.04,0.95-0.07,1.33-0.23c1,0.82,2.03,1.6,3.07,2.38 c0.09,0.07,0.18,0.14,0.27,0.21c0.2,0.15,0.39,0.31,0.6,0.46c3.26,2.37,7.17-0.22,8.35-3.45c0.21-0.58,0.33-1.19,0.35-1.79 c2.21-2.63,4.33-5.33,6.35-8.1c6.62-9.1,12.21-18.93,16.57-29.31c0.66-1.56,1.31-3.13,1.92-4.72c2.3-6.07,4.38-12.78,5.38-19.57 c0.33-2.25,0.52-4.51,0.57-6.76c1.73-0.49,3.7-0.12,4.94,1.03c-0.63,0.69-0.94,1.58-0.66,2.47c0.08,0.25,0.16,0.5,0.34,0.74 c4.25,5.61,8.63,11.11,13.09,16.54c-1.79-1.07-4.51,0.82-3.09,2.87c4.19,6.08,8.61,11.93,13.17,17.64c-0.87-0.33-1.74-0.64-2.63-0.9 c-1.34-0.38-2.7-0.66-4.07-0.89c-1.18-0.2-2.37-0.35-3.55-0.47c-1.18-0.12-2.37-0.17-3.56-0.15c-0.23,0-0.47,0.03-0.7,0.04 c-3.4,0.11-6.8,0.7-10.03,1.76c-1,0.33-1.65,0.94-2,1.65c0,0-0.01,0.01-0.01,0.01c-0.23,0.48-0.3,1-0.28,1.52 c0.06,1.87,1.6,3.7,4.05,3.2c1.16-0.24,2.27-0.37,3.4-0.46c0.8-0.06,1.61-0.11,2.49-0.11c1,0,2.01,0.05,3.01,0.13 c0.53,0.04,1.06,0.09,1.59,0.15c0.11,0.02,0.87,0.14,0.98,0.16c1.99,0.36,3.92,0.95,5.81,1.68c0.15,0.07,0.97,0.42,1.07,0.47 c0.39,0.18,0.77,0.38,1.15,0.57c1.02,0.54,1.97,1.15,2.9,1.84c0.79,0.58,1.78,0.77,2.77,0.67c1.59-0.16,3.17-1.08,3.87-2.41 c0.1-0.19,0.18-0.41,0.26-0.62c3.09,3.58,6.3,7.08,9.62,10.48c2.52,2.59,5.05,5.18,7.72,7.66c6.9,6.4,14.29,12.32,21.91,17.85 c0.85,0.62,1.73,1.22,2.59,1.83c1.8,1.27,3.61,2.52,5.44,3.73c1.27,0.84,2.53,1.7,3.82,2.52c2.28,1.44,4.66,3.06,7.14,4.42 c1.76,0.97,3.57,1.8,5.43,2.3c0.1,0.03,0.2,0.08,0.3,0.11c1.43,0.35,2.72-0.24,3.56-1.2c0.38-0.43,0.68-0.93,0.83-1.47 c1.59,0.7,3.19,1.34,4.83,1.83c0.15,0.05,0.3,0.02,0.45,0.04c0.67,0.62,1.29,1.26,1.8,1.96c0.01,0.21,0.02,0.43,0.04,0.64 C387.29,261.71,387.68,271.99,387.61,282.23z M335.33,355.55c0.94,1.52,2.05,2.61,3.27,3.86c2.29,2.36,6.85-0.04,5.71-3.32 c-0.54-1.53-0.93-3.04-1.8-4.44c-0.77-1.24-1.54-2.48-2.3-3.72c-1.54-2.48-3.07-4.97-4.61-7.45c-1.62-2.62-5.38-2.62-7,0 c-2.77,4.48-5.3,9.11-7.56,13.87c-0.06-0.16-0.14-0.32-0.2-0.48c-0.5-1.4-0.99-2.81-1.43-4.24c-0.23-0.75-0.47-1.49-0.76-2.23 c-0.18-0.46-0.33-0.96-0.56-1.4c-0.12-0.22-0.67-1.05-0.64-0.94c-0.69-2.6-4.99-2.16-4.8,0.65c0.05,0.81-0.33,1.69-0.3,2.54 c0.03,1.01,0.17,1.99,0.35,2.98c0.29,1.62,0.66,3.22,1.13,4.8c1.02,3.39,2.36,6.69,3.9,9.87c1.22,2.51,5.63,2.64,6.8,0 c2.36-5.28,4.86-10.47,7.66-15.51c0.33,0.54,0.67,1.08,1,1.62C333.9,353.21,334.62,354.38,335.33,355.55z M229.9,376.83 c7.36,0.53,14.93,0.73,22.05-1.53c6.54-2.08,12.41-5.81,17.12-10.8c5.36-5.67,9.9-12.95,10.06-20.98c0.06-3.22-0.74-6.53-2.25-9.43 c-1.66-3.18-4.18-5.88-7.48-7.41c-6.32-2.93-13.02-0.74-19.03,1.87c-3.12,1.36-6.16,2.91-9.42,3.9c-4.06,1.23-7.58,0.8-11.61-0.34 c-5.36-1.52-10.65-2.56-15.15-0.48c-1.62,0.75-3.13,1.92-4.51,3.62c-0.16,0.2-0.34,0.34-0.5,0.55c-3.11,4.23-4.75,9.52-4.75,14.76 c0.01,12.13,8.25,20.74,18.9,24.27c1.55,0.51,3.14,0.92,4.78,1.21C228.56,376.46,229.13,376.77,229.9,376.83z M282.31,234.16 c-0.81,0.55-1.57,1.14-2.29,1.77c-0.8,0.71-1.52,1.47-2.12,2.29c-1.03,1.41-1.7,2.97-1.73,4.67c-6.87,8.73-8.06,21.51-6.86,32.22 c0.22,1.97,0.52,3.93,0.89,5.86c1.15,5.96,3.04,11.74,5.75,17.21c3.62,7.29,9.2,15.22,16.85,18.59c4.11,1.81,8.48,1.98,12.6,1 c5.1-1.22,9.79-4.26,13.03-8.57c0.05-0.06,0.11-0.12,0.16-0.18c4.15-5.65,5.89-12.59,6.02-19.5c0.02-0.91-0.03-1.84-0.06-2.76 c-0.31-11.59-3.81-23.6-9.47-33.66c-0.28-0.51-0.54-1.03-0.84-1.53c-1.16-1.95-2.49-3.84-3.94-5.62c-2.38-2.94-5.12-5.57-8.14-7.56 c1.35,0.1,2.66,0.23,3.85,0.43c0.12,0.02,0.24,0.07,0.36,0.09c2.35,0.43,4.64,1.16,6.81,2.14c3.94,1.79,7.45,4.45,10.1,7.8 c2.31,2.92,3.99,6.34,4.67,10.19c0.51,2.9,4.06,4.54,6.71,3.81c3.12-0.86,4.24-3.78,3.81-6.71c-0.54-3.62-1.81-6.97-3.6-9.99 c-2.08-3.51-4.88-6.57-8.14-9.12c-5.61-4.4-12.54-7.28-19.39-8.15c-6.06-0.78-12.19-0.43-17.96,1.68 C287.35,231.32,284.71,232.55,282.31,234.16z M144.77,364.66c0.03,2.11,0.28,4.23,0.64,6.26c0.65,3.63,1.83,7.06,3.3,10.43 c1.11,2.55,4.78,2.5,6.53,0.84c4.5-4.29,8.36-9.37,11.61-14.75c0.12,0.37,0.26,0.74,0.37,1.12c0.08,0.26,0.1,0.53,0.17,0.79 c0.32,1.22,0.62,2.44,0.79,3.69c0.02,0.23,0.07,0.65,0.08,0.67c0.04,0.43,0.05,0.86,0.1,1.28c0.11,1.09,0.3,2.12,0.68,3.15 c1.34,3.64,5.96,3.56,7.34,0c0.79-2.05,0.59-4.16,0.31-6.28c-0.25-1.89-0.6-3.76-1.14-5.59c-0.48-1.62-1.1-3.2-1.8-4.75 c-0.86-1.92-1.84-3.79-3.01-5.53c-0.45-0.66-1.1-1.18-1.83-1.54c-1.95-0.97-4.51-0.72-5.58,1.54c-0.14,0.29-0.3,0.56-0.44,0.84 c-1.72,3.53-3.66,6.94-5.89,10.17c-1.16,1.67-2.35,3.22-3.63,4.76c-0.32-0.88-0.63-1.78-0.91-2.78c-0.67-2.34-1.07-4.72-1.53-7.09 c-0.13-0.69-0.25-1.37-0.41-2.06c-0.61-2.62-4.74-2.65-5.33,0C144.85,361.4,144.75,363.03,144.77,364.66z M176.51,287.84 c4.03-0.53,7.61-3.82,9.73-7.11c2.05-3.18,3.18-6.92,3.26-10.7c0.04-2.13-0.29-4.11-0.9-6.01c-0.97-2.01-2.04-3.97-3.28-5.82 c-0.14-0.21-0.25-0.42-0.34-0.63c-2.56-1.49-5.21-2.27-8.28-0.91c-3.41,1.51-5.82,4.63-7.62,7.78c-0.58,1.02-1.08,2.09-1.58,3.17 c-0.01,0.21-0.05,0.44-0.2,0.67c-0.23,0.37-0.43,0.75-0.62,1.13c-0.32,0.77-0.61,1.56-0.89,2.35c-0.82,3.05-0.49,6.33,0.83,9.29 C168.28,284.78,172.12,288.42,176.51,287.84z M302.92,252.36c0.07,0.01,0.13,0.01,0.2,0.02c-0.03-0.04-0.06-0.07-0.08-0.11 c-0.12-0.16-0.24-0.32-0.37-0.48c0.08,0.18,0.15,0.38,0.23,0.56C302.9,252.36,302.91,252.36,302.92,252.36z M280.54,271.22 c1.08,1.48,2.46,2.74,4.19,3.63c3.95,2.03,9.28,1.9,12.15-1.86c3.61-4.73,4.04-12.08,2.24-17.59c-0.01-0.04-0.02-0.08-0.03-0.12 c-1.73-5.17-5.96-9.25-11.27-10.54c-0.28-0.07-0.48-0.2-0.68-0.32c-0.95,0.15-1.93,0.39-2.93,0.74c-0.24,0.08-0.48,0.13-0.71,0.17 c-4.19,4.15-5.99,10.93-5.87,16.58C277.69,265.25,278.62,268.59,280.54,271.22z M304.43,308.58c-0.29-0.04-3.06,0.77-3.39,0.94 c1.66-0.08,3.15-0.41,4.47-0.95C305.15,308.56,304.8,308.63,304.43,308.58z M263.16,332.61c1.11-0.02,2.23,0.06,3.33,0.38 c0.88,0.26,1.67,0.65,2.41,1.09c-1.97-1.73-4.59-2.58-7.59-2.2c0.63,0.12,1.18,0.36,1.81,0.7 C263.13,332.59,263.14,332.61,263.16,332.61z M296.04,285.41c0.41-0.1,0.81-0.2,1.24-0.22c0.1-0.02,2.14-1.87,3.13-2.69 c-0.04-0.16-0.08-0.31-0.12-0.47c-0.69,0.51-1.4,0.99-2.07,1.53C297.48,284.15,296.76,284.79,296.04,285.41z M211.84,356.87 c-0.03-0.04-0.05-0.09-0.07-0.13c0.33,0.98,0.76,1.89,1.24,2.77c-0.04-0.15-0.09-0.3-0.12-0.45 C212.5,358.34,212.15,357.61,211.84,356.87z M329.75,208.58c-1-0.95-1.94-1.96-2.93-2.92c-0.12,0.02-0.24,0.01-0.35,0.03 c1.81,1.65,3.63,3.28,5.47,4.87C331.23,209.89,330.47,209.26,329.75,208.58z" fill="#EDD7CA"/></g><g id="change3_1"><path d="M68.88,393.05c0.18,0.35,0.43,0.57,0.66,0.82c-2.68,0.56-5.43,0.87-8.27,0.83 c-14.11-0.2-24.32-9.14-31.24-20.79c-4.77-8.03-8.73-16.8-12.1-25.73c-2.17-5.74-4.15-11.53-5.79-17.29 c-1.54-5.39-2.76-10.92-3.51-16.49c-1.35-9.94-1.2-20.03,1.47-29.8c4.12-15.1,13.1-26.58,26.72-34.01c-0.1,1.96-0.18,3.92-0.23,5.89 c-0.07,2.66-0.07,5.33-0.04,8c0.07,6.03,0.34,12.06,0.84,18.08c0.82,9.94,2.15,19.8,3.86,29.43c4.13,23.22,11.28,45.82,21,67.28 c2.06,4.56,4.21,9.09,6.5,13.54C68.79,392.88,68.83,392.97,68.88,393.05z M201.92,45.22c-2.73-0.38-5.45-0.95-8.11-1.73 c0.9-0.65,1.6-1.6,1.92-2.73c7.65-7.14,13.7-15.8,21.44-22.86c4.42-4.02,10.23-7.96,16.33-9.51c3.18-0.81,6.43-0.97,9.6-0.14 c1.22,0.32,2.42,0.76,3.61,1.39c3.98,2.1,7.78,5.95,8.21,10.63c0.5,5.39-3.93,9.74-7.53,13.12c-1.32,1.23-2.76,2.32-4.27,3.33 c-5.64,3.77-12.4,6.08-18.87,7.53c-4.98,1.11-10.04,1.6-15.08,1.5c-1.57-0.03-3.13-0.12-4.69-0.27 C203.62,45.41,202.77,45.34,201.92,45.22z M210.96,34.82c0.06,0.33,0.17,0.64,0.33,0.91c0.68,1.16,2.05,1.64,3.33,1.36 c0.02,0,0.04-0.01,0.06-0.01c0.66,0.16,1.32,0.17,1.98-0.01c0.46-0.09,0.89-0.22,1.34-0.34c0.99-0.24,1.87-0.53,2.82-0.92 c1.99-0.82,4-1.63,5.97-2.5c1.72-0.77,3.45-1.54,5.17-2.31c0.86-0.38,1.72-0.77,2.58-1.15c0.3-0.13,0.61-0.26,0.91-0.4 c0.99-0.43,1.94-0.9,2.65-1.77c1.05-1.29,1.65-2.73,1.51-4.27c-0.05-0.51-0.18-1.03-0.4-1.56c-0.3-0.71-0.81-1.33-1.4-1.87 c-0.95-0.88-2.17-1.47-3.48-1.41c-1.9,0.09-3.31,0.84-4.9,1.74c-0.82,0.46-1.63,0.92-2.45,1.39c-1.69,0.96-3.38,1.92-5.07,2.87 c-1.69,0.96-3.34,1.98-5,2.99c-1.02,0.62-1.91,1.3-2.82,2.08c-0.39,0.33-0.83,0.61-1.19,0.97c-0.36,0.37-0.58,0.78-0.76,1.2 c-0.13,0.12-0.25,0.24-0.39,0.35C211.03,32.79,210.78,33.87,210.96,34.82z M214.13,36.86c-0.57-0.25-0.62-0.26-0.08,0 C214.08,36.86,214.11,36.86,214.13,36.86z M151.9,44.81c2.17,0.95,4.45,1.49,6.75,1.73c0.18-0.03,0.37-0.04,0.56-0.08 c0.23-0.05,0.46-0.14,0.69-0.21c0.4,0.15,0.8,0.28,1.21,0.41c2.75-0.01,5.47-0.5,8.08-1.45c-2.6-1.39-5.11-2.96-7.49-4.72 c-2.62-1.93-4.73-4.13-6.98-6.44c-1.34-1.37-1.37-3.63,0-5c1.44-1.44,3.53-1.21,5,0c2.09,1.72,4.58,3.15,6.86,4.61 c0.32,0.2,0.65,0.38,0.97,0.58c2.02,1.24,4.09,2.38,6.23,3.38c1.77,0.83,3.77,1.56,5.84,2.26c2.18,0.74,4.43,1.41,6.67,2.02 c0.15-0.05,0.32-0.08,0.48-0.12c-5.17-8.08-9.34-17.26-17.36-23.03c-0.52-0.38-1.09-0.72-1.65-1.07c-2.12-1.31-4.5-2.36-6.99-3.03 c-4.07-1.09-8.38-1.11-12.13,0.83c-0.19,0.1-0.34,0.23-0.52,0.33c-5,2.92-7.1,8.68-6.75,14.46C141.77,36.63,145.92,42.2,151.9,44.81 z M453.74,273.24c-0.18-2.16-0.42-4.32-0.7-6.47c-0.5-2.56-1.1-5.09-1.82-7.59c-0.55-3.47-1.17-6.93-1.87-10.36 c-0.08-0.39-0.18-0.78-0.26-1.17c-2.03-7.12-4.67-14.06-8-20.59c-2.5-4.9-5.87-10.62-10.02-15.32c-5.95-6.72-13.54-11.32-22.7-8.35 c0.8,3.44,1.54,6.9,2.24,10.37c4.46,22.23,6.77,45.09,7.17,67.67c0.01,0.36,0,0.72,0,1.08c0.21,14.35-0.39,28.71-2.04,42.96 c-0.82,7.12-1.87,14.22-3.21,21.26c-0.08,0.41-0.16,0.84-0.24,1.26c-0.6,3.19-1.21,6.44-1.92,9.68c-0.57,2.62-1.23,5.2-2,7.73 c1.29-0.37,2.56-0.78,3.82-1.24c1.87-0.68,3.7-1.46,5.5-2.34c2.37-1.15,4.69-2.46,6.93-3.93c0.51-0.33,1.03-0.62,1.53-0.97 C451.65,339.05,456.11,301.97,453.74,273.24z M408.36,323.77c-0.84,7.58-2,15.13-3.48,22.61c-0.4,2.05-0.88,4.08-1.38,6.11 c-0.3,1.21-0.61,2.41-0.92,3.61c-0.26,1.01-0.51,2.03-0.77,3.05c-0.68,2.66-1.31,5.32-1.84,7.99c-0.01,0.03-0.02,0.07-0.02,0.1 c-5.06,0.71-10.23,0.72-15.42,0.13c1.99-2.99,3.64-6.19,4.67-9.58c0.81-2.67,1.26-5.45,1.24-8.31c-0.01-1.44-0.55-2.59-1.36-3.46 c2.29-9.78,3.24-20.16,4.22-30.03c1.14-11.51,1.75-23.09,1.76-34.66c0.01-9.66-0.43-19.25-1.27-28.8 c-0.89-10.07-2.25-20.08-4.11-30.05c1.38-0.65,2.44-1.93,2.39-3.71c-0.35-12.99-4.55-25.53-10.9-37.18 c-8.94-16.39-22.18-31.02-35.29-42.6c-9.68-8.55-20.57-15.92-32.2-21.97c-17.6-9.16-36.89-15.25-56.3-17.55 c-10.2-1.21-20.35-0.93-30.31,0.58c-10.81,1.63-21.4,4.72-31.61,9.07c-0.58,0.25-0.92,0.67-1.16,1.13 c-2.29,0.53-4.57,1.09-6.84,1.66c-0.53-0.47-1.23-0.8-2.17-0.78c-23.6,0.52-45.85,10.65-64.43,24.83c-1.9,1.45-3.78,2.94-5.61,4.47 c-14.37,12.07-27.77,27.28-36.01,44.59c-2.38,5.01-4.31,10.2-5.73,15.54c-7.64,19.5-10.03,40.33-9.78,61.36 c0.01,0.63-0.01,1.26,0,1.89c0.2,10.06,0.99,20.14,2.32,30.15c2.13,16.15,5.64,32.13,10.29,47.67c1.07,3.58,2.17,7.26,3.35,10.97 c2.99,9.46,6.48,19.05,11.41,27.27c0.11,0.18,0.26,0.28,0.39,0.43c-2.41,2.96-5.16,5.53-8.21,7.64c-2.45,1.7-5.08,3.1-7.85,4.18 c0.26-0.83,0.25-1.78-0.25-2.76c-4.15-8.04-7.86-16.28-11.2-24.67c-6.93-17.38-12.15-35.42-15.53-53.86 c-5.06-27.57-4.62-54.79-3.23-82.63c0.69-0.3,1.25-0.91,1.43-1.95c1.02-5.93,2.39-11.79,4.06-17.55c0.89-3.06,1.87-6.08,2.93-9.08 c4.89-13.83,11.6-26.99,19.88-39.11c5.85-8.57,12.47-16.63,19.78-24.03c12.61-12.76,27.3-23.11,43.17-31.32 c1.22-0.63,2.46-1.24,3.7-1.85c14.46-7.1,29.81-12.5,45.4-16.33c3.36-0.83,6.75-1.52,10.15-2.15c0.92,2.77,5.05,2.86,6.15-0.17 c0.1-0.29,0.17-0.59,0.26-0.89c1.24-0.18,2.48-0.36,3.72-0.51c24.34-3.07,49.4-1.41,73.39,3.42c2.71,0.55,5.42,1.12,8.1,1.75 c2.53,0.59,5.04,1.26,7.54,1.98c18.48,5.36,36.09,14.31,51.47,25.74c8.39,6.24,15.97,13.27,22.69,20.96 c4.07,4.66,7.81,9.58,11.22,14.71c8.28,12.46,14.59,26.23,18.67,40.96c0.57,2.08,1.11,4.17,1.59,6.29c0.37,1.61,1.37,2.54,2.56,2.94 c-0.54,0.65-0.85,1.51-0.69,2.55c0.19,1.17,0.36,2.34,0.54,3.51c0.2,1.29,0.4,2.58,0.6,3.87c3.53,23.05,6.3,46.08,6.7,69.46 C410.48,295.55,409.92,309.71,408.36,323.77z M313.36,274.48c-0.98,0.53-2.1,0.92-3,1.37c-1.5,0.75-2.96,1.55-4.4,2.4 c-1.96,1.15-3.84,2.44-5.67,3.78c0.04,0.16-3.85,3.28-4.25,3.38c-4.1,3.51-7.95,7.42-11.34,11.58c3.33,5.54,8.57,12.59,15.58,12.6 c0.27,0,0.51-0.05,0.77-0.06c4.98-0.48,4.11-0.96,4.47-0.95c8.9-3.66,10.42-16.77,9.43-25.48 C314.61,280.22,314.07,277.33,313.36,274.48z M303.98,273.54c0.21-0.13,0.43-0.23,0.64-0.36c-0.13-0.09-0.23-0.2-0.35-0.3 C304.17,273.1,304.09,273.33,303.98,273.54z M189.43,295.34c-1.36,0.03-2.71,0.16-4.05,0.4c-2.63,0.48-5.21,1.29-7.61,2.47 c-5.01,2.45-9.27,6.18-12.71,10.55c-0.48,0.61-1.07,0.62-1.57,0.34c0.76,2.51,1.72,4.94,3,7.23c2.63,4.7,7.12,10.53,13.06,10.36 c4.97-0.14,7.8-3.24,10.01-7.28c4.11-7.51,5.43-16.33,5.37-24.94c-0.27,0.29-0.6,0.54-1,0.69 C192.56,295.67,190.88,295.31,189.43,295.34z" fill="#7AA06F"/></g><g id="change4_1"><path d="M272.36,340.39c1.22,6.57-2.7,13-6.86,17.73c-2.46,2.79-5.2,4.99-8.14,6.75 c-8.06,4.83-17.65,6.19-27.47,6.09c-0.32,0-0.57,0.08-0.83,0.15c-3.88-1.09-7.65-2.84-10.75-5.31c-2.18-1.74-4-3.84-5.31-6.28 c-0.04-0.15-0.09-0.3-0.12-0.45c-0.38-0.72-0.73-1.45-1.04-2.19c-0.03-0.04-0.05-0.09-0.07-0.13c-0.35-1.03-0.63-2.09-0.8-3.22 c-0.54-3.74,0.07-7.69,1.74-11.08c1.19-2.42,2.88-5.08,5.72-5.62c2.73-0.52,5.68,0.54,8.36,1.39c0.43,0.14,0.87,0.28,1.28,0.4 c5.8,1.64,11.11,1.63,16.8-0.46c1.13-0.42,2.26-0.9,3.38-1.41c4.11-1.87,8.19-4.09,12.59-4.82c0.16-0.03,0.3-0.01,0.46-0.03 c0.63,0.12,1.18,0.36,1.81,0.7c0.01,0.01,0.03,0.02,0.04,0.03c1.11-0.02,2.23,0.06,3.33,0.38c0.88,0.26,1.67,0.65,2.41,1.09 C270.63,335.61,271.87,337.77,272.36,340.39z M217.85,212.67c3.82,3.7,8.77,7.4,14.21,7.82c0.52,0.04,0.95-0.07,1.33-0.23 c-14.61-11.97-24.76-28.3-29.44-46.43c-1.06,1.42-2.06,2.89-3.1,4.33c0.02,0.08,0.04,0.17,0.06,0.25c0.25,0.95,0.5,1.87,0.71,2.67 c1.54,5.85,3.48,11.63,6.07,17.1c0.09,0.19,0.16,0.38,0.25,0.56c2.44,5.06,5.67,9.79,9.69,13.73 C217.7,212.53,217.78,212.6,217.85,212.67z M152.64,249.18c1.67-0.86,3.45-1.64,5.33-2.29c-10.39-13.86-14.8-31.53-13.45-48.75 c0.08-1.04,0.17-2.08,0.29-3.11c0.13-1.12,0.31-2.23,0.5-3.34c-0.59,0.79-1.17,1.59-1.75,2.38c-7.71,10.45-15.41,20.88-22.21,32 c-10.84,17.74-19.86,36.67-25.95,56.56c0.96,0.2,1.95-0.14,2.56-1.38c3.5-7.16,5.8-14.88,9.17-22.11c1.71-3.66,3.54-7.27,5.45-10.83 c1.89-3.51,3.87-6.97,5.93-10.39c4.03-6.71,8.34-13.26,12.72-19.75c1.54-2.28,3.18-4.56,4.82-6.85c1.3-1.82,2.58-3.66,3.83-5.51 c-0.05,0.51-0.07,1.02-0.11,1.52c-0.29,4.52-0.07,9.07,0.53,13.41c0.48,3.46,1.29,7.02,2.38,10.51c1.34,4.26,3.14,8.41,5.5,12.14 C149.49,245.48,150.98,247.42,152.64,249.18z M356.71,231.81c-8.62-6.65-16.82-13.8-24.77-21.24c-1.84-1.6-3.66-3.22-5.47-4.87 c-0.34-0.31-0.68-0.62-1.01-0.94c-10.61-9.8-20.54-20.55-29.05-32.13c-0.62-0.75-1.26-1.48-1.88-2.23 c-1.79-1.07-4.51,0.82-3.09,2.87c4.19,6.08,8.61,11.93,13.17,17.64c0.2,0.07,0.41,0.13,0.6,0.21c0.42,0.17,0.84,0.35,1.26,0.53 c-0.01-0.01,0.11,0.04,0.31,0.12c0.78,0.31,1.55,0.64,2.32,0.98c2.25,0.99,2.75,3.91,2,6.01c3.09,3.58,6.3,7.08,9.62,10.48 c2.52,2.59,5.05,5.18,7.72,7.66c6.9,6.4,14.29,12.32,21.91,17.85c0.85,0.62,1.73,1.22,2.59,1.83c1.8,1.27,3.61,2.52,5.44,3.73 c1.27,0.84,2.53,1.7,3.82,2.52c2.28,1.44,4.66,3.06,7.14,4.42c1.76,0.97,3.57,1.8,5.43,2.3c0.1,0.03,0.2,0.08,0.3,0.11 c1.43,0.35,2.72-0.24,3.56-1.2c0.38-0.43,0.68-0.93,0.83-1.47C371.2,243.34,363.68,237.19,356.71,231.81z M175.53,366.27 c-0.48-1.62-1.1-3.2-1.8-4.75c-0.86-1.92-1.84-3.79-3.01-5.53c-0.45-0.66-1.1-1.18-1.83-1.54c-1.95-0.97-4.51-0.72-5.58,1.54 c-0.14,0.29-0.3,0.56-0.44,0.84c-1.72,3.53-3.66,6.94-5.89,10.17c-1.16,1.67-2.35,3.22-3.63,4.76c-0.32-0.88-0.63-1.78-0.91-2.78 c-0.67-2.34-1.07-4.72-1.53-7.09c-0.13-0.69-0.25-1.37-0.41-2.06c-0.61-2.62-4.74-2.65-5.33,0c-0.35,1.57-0.44,3.2-0.42,4.83 c0.03,2.11,0.28,4.23,0.64,6.26c0.65,3.63,1.83,7.06,3.3,10.43c1.11,2.55,4.78,2.5,6.53,0.84c4.5-4.29,8.36-9.37,11.61-14.75 c0.12,0.37,0.26,0.74,0.37,1.12c0.08,0.26,0.1,0.53,0.17,0.79c0.32,1.22,0.62,2.44,0.79,3.69c0.02,0.23,0.07,0.65,0.08,0.67 c0.04,0.43,0.05,0.86,0.1,1.28c0.11,1.09,0.3,2.12,0.68,3.15c1.34,3.64,5.96,3.56,7.34,0c0.79-2.05,0.59-4.16,0.31-6.28 C176.42,369.97,176.08,368.1,175.53,366.27z M342.51,351.65c-0.77-1.24-1.54-2.48-2.3-3.72c-1.54-2.48-3.07-4.97-4.61-7.45 c-1.62-2.62-5.38-2.62-7,0c-2.77,4.48-5.3,9.11-7.56,13.87c-0.06-0.16-0.14-0.32-0.2-0.48c-0.5-1.4-0.99-2.81-1.43-4.24 c-0.23-0.75-0.47-1.49-0.76-2.23c-0.18-0.46-0.33-0.96-0.56-1.4c-0.12-0.22-0.67-1.05-0.64-0.94c-0.69-2.6-4.99-2.16-4.8,0.65 c0.05,0.81-0.33,1.69-0.3,2.54c0.03,1.01,0.17,1.99,0.35,2.98c0.29,1.62,0.66,3.22,1.13,4.8c1.02,3.39,2.36,6.69,3.9,9.87 c1.22,2.51,5.63,2.64,6.8,0c2.36-5.28,4.86-10.47,7.66-15.51c0.33,0.54,0.67,1.08,1,1.62c0.72,1.17,1.44,2.34,2.16,3.51 c0.94,1.52,2.05,2.61,3.27,3.86c2.29,2.36,6.85-0.04,5.71-3.32C343.77,354.56,343.38,353.05,342.51,351.65z M109.99,178.59 c6.28-4.16,12.78-7.9,19.57-11.18c5.08-2.45,10.34-4.48,15.68-6.3c1.6-0.54,3.17-1.16,4.79-1.64c3.5-1.05,7.04-1.97,10.6-2.74 c3.71-0.81,7.32-1.06,10.21-3.76c1.63-1.52,1.43-4.9-0.76-5.88c-3.69-1.67-6.96-0.91-10.79-0.07c-3.98,0.88-7.93,1.94-11.82,3.16 c-0.3,0.09-0.6,0.21-0.9,0.3c-7.24,2.32-14.33,5.2-21.14,8.57c-6.91,3.43-13.6,7.48-19.78,12.09c-3.2,2.39-6.37,4.87-9.34,7.55 c-2.38,2.15-4.25,4.51-6.19,6.91c-0.85,1.51-1.7,3.03-2.5,4.57c0.39,1.63,2.43,2.72,4.18,1.29c2.89-2.35,6.3-4.3,9.31-6.56 C104.02,182.74,106.95,180.6,109.99,178.59z M244.57,133.01c0.52,0.35,1.02,0.71,1.52,1.07c0.13,0.13,0.26,0.27,0.4,0.4 c0.38,0.37,0.84,0.67,1.29,0.96c0.41,0.26,0.83,0.52,1.23,0.79c0.27,0.23,0.57,0.49,0.79,0.6c0.66,0.35,1.44,0.61,2.2,0.56 c0.74,0,1.42-0.19,2.06-0.56c0.61-0.36,1.1-0.85,1.46-1.46c0.72-1.22,0.77-2.9,0-4.12c-0.62-0.98-1.41-1.65-2.53-1.99 c-0.13-0.04-0.26-0.07-0.4-0.11c-0.29-0.08-0.56-0.16-0.84-0.27c-0.5-0.19-1.02-0.45-1.55-0.58c-0.27-0.07-0.55-0.06-0.82-0.11 c-0.27-0.05-0.53-0.14-0.79-0.22c-0.56-0.17-1.11-0.38-1.67-0.58c-0.69-0.24-1.75-0.08-2.36,0.31c-0.57,0.37-0.99,0.84-1.25,1.47 c-0.26,0.61-0.36,1.35-0.15,2C243.42,131.96,243.88,132.55,244.57,133.01z M305.4,137.2c1.07,0.48,1.91,1.26,2.94,1.83 c0.88,0.49,1.82,0.89,2.73,1.34c1.95,0.97,3.88,1.92,5.87,2.81c3.71,1.66,7.44,3.28,11.18,4.87c3.85,1.64,7.7,3.31,11.57,4.91 c2.98,1.23,6.05,2.93,9.19,3.07c-5.34-5.63-11.12-10.92-17.25-15.8c-0.34-0.11-0.68-0.23-1.02-0.35c-3.87-1.31-7.74-2.57-11.63-3.8 c-1.95-0.62-3.91-1.13-5.88-1.67c-1.08-0.3-2.25-0.8-3.36-0.94c-1.01-0.13-1.63-0.06-2.61-0.37 C304.76,132.36,303.06,136.14,305.4,137.2z M217.62,143.3c0.09,0.37,0.17,0.75,0.27,1.12c0.12,0.46,0.34,0.92,0.58,1.34 c0.39,0.67,0.91,1.22,1.58,1.62c0.29,0.17,0.75,0.37,0.97,0.42c0.5,0.11,0.94,0.13,1.44,0.06c0.45-0.06,0.9-0.18,1.3-0.42 c0.24-0.19,0.48-0.37,0.72-0.56c0.35-0.32,0.59-0.7,0.74-1.14c0.08-0.19,0.18-0.4,0.25-0.6c0.2-0.56,0.17-1.05,0.09-1.6 c-0.04-0.33-0.08-0.69-0.15-1.01c-0.08-0.35-0.3-0.75-0.45-1.08c-0.04-0.09-0.08-0.17-0.12-0.26c-0.08-0.17-0.16-0.34-0.24-0.51 c-0.08-0.17-0.16-0.34-0.24-0.51c-0.14-0.29-0.34-0.54-0.55-0.79c-0.17-0.25-0.34-0.5-0.5-0.75c-0.31-0.48-0.76-0.91-1.27-1.21 c-0.65-0.99-1.91-1.38-3-0.93c-0.47,0.2-0.93,0.54-1.18,1.01c-0.08,0.2-0.17,0.39-0.25,0.59c-0.08,0.28-0.02,0.56,0,0.84 c-0.19,0.42-0.31,0.86-0.31,1.33C217.38,141.27,217.38,142.3,217.62,143.3z" fill="#E38AB0"/></g><g id="change5_1"><path d="M166.63,221.29c-2.03,6.06-3.16,12.09-4.07,18.27c-10.81-18.82-14.44-40.83-7.36-61.84 c0.48-1.41-0.07-2.46-0.99-3.04c-1.4-1.59-3.97-2.3-5.66-0.42c-1.62,1.8-3.2,3.63-4.77,5.48c-24.91,29.31-43.62,64-54.3,100.91 c-0.34,1.17-0.7,2.34-1.02,3.52c-1.05,3.83,4.85,5.45,5.95,1.64c0.31-1.06,0.66-2.1,0.98-3.15c6.09-19.89,15.11-38.82,25.95-56.56 c6.79-11.12,14.5-21.56,22.21-32c0.59-0.79,1.17-1.59,1.75-2.38c-0.18,1.11-0.36,2.22-0.5,3.34c-0.12,1.03-0.21,2.07-0.29,3.11 c-1.35,17.22,3.06,34.88,13.45,48.75c-1.87,0.65-3.66,1.43-5.33,2.29c-0.97,0.5-1.91,1.02-2.79,1.58c-0.28,0.18-0.53,0.39-0.81,0.57 c-0.21,0.14-0.41,0.3-0.62,0.44c-8.78,6.13-15.24,15.72-16.16,26.48c-0.14,1.67,0.61,2.83,1.68,3.56c2.33,1.59,6.37,0.97,7.33-2.34 c1.03-3.53,2.4-6.97,4.2-10.14c2.34-4.13,5.4-7.79,9.5-10.49c3.92-2.58,8.39-4.31,13.06-4.96c0.01,0,0.03-0.01,0.04-0.01 c0.14-0.02,0.28-0.01,0.41-0.03c-4.71,4.25-7.49,10.39-9.59,16.29c-4.73,13.28-6.27,28.93-1.69,42.47 c2.87,8.49,9.29,17.59,17.57,20.28c4.04,1.31,8.52,1.12,13.25-1.46c5.14-2.8,7.97-8.44,10.03-13.69c1.56-3.95,2.55-8.11,3.2-12.33 c0.41-2.67,0.71-5.36,0.85-8.04c0.7-14.28-1.77-31.08-10.38-42.91c-0.66-0.9-1.52-1.38-2.41-1.54c-1.24-1.17-2.64-2.04-4.11-2.67 c-0.18-0.69-0.56-1.34-1.22-1.8c-1.33-0.93-2.77-1.66-4.28-2.23c-3.65-1.38-7.74-1.77-11.85-1.44c1.64-6.72,4.32-13.35,6.82-19.74 c1.35-3.46,2.85-6.88,4.43-10.25c0.28-0.18,0.54-0.36,0.83-0.54c1.11-0.68,2.16-1.43,3.31-2.06c0.23-0.12,0.46-0.24,0.69-0.36 c0.35-0.18,0.7-0.37,1.05-0.54c0.26-0.13,0.53-0.25,0.79-0.37c0.13-0.06,0.16-0.08,0.21-0.1c0.01,0,0.02,0,0.1-0.04 c0.97-0.38,1.98-0.69,2.99-0.98c1.43-0.41,2.87-0.76,4.32-1.02c0.29-0.05,0.57-0.1,0.86-0.15c0.04-0.01,0.06-0.01,0.09-0.02 c0.02,0,0.03,0,0.06,0c0.57-0.04,1.15-0.1,1.72-0.16c0.66-0.07,2.33-0.29,1.08-0.14c0.59-0.07,1.19-0.14,1.78-0.23 c0.1-0.01,0.15-0.02,0.21-0.03c0.35-0.03,0.7-0.07,1.05-0.1c2.38-0.21,4.34-1.65,4.67-4.12c0.28-2.1-1.06-4.88-3.41-5.22 c-1.47-0.22-2.96-0.41-4.45-0.42c-0.24,0-0.48-0.04-0.72-0.03c-1.72,0.08-3.52,0.44-5.2,0.84c-1.59,0.38-3.12,0.91-4.62,1.53 c4.35-7.74,9.16-15.18,14.33-22.38c1.03-1.44,2.03-2.91,3.1-4.33c4.69,18.13,14.83,34.47,29.44,46.43c1,0.82,2.03,1.6,3.07,2.38 c0.09,0.07,0.18,0.14,0.27,0.21c0.2,0.15,0.39,0.31,0.6,0.46c3.26,2.37,7.17-0.22,8.35-3.45c0.21-0.58,0.33-1.19,0.35-1.79 c2.21-2.63,4.33-5.33,6.35-8.1c6.62-9.1,12.21-18.93,16.57-29.31c0.66-1.56,1.31-3.13,1.92-4.72c2.3-6.07,4.38-12.78,5.38-19.57 c0.33-2.25,0.52-4.51,0.57-6.76c0.1-3.92-0.22-7.8-1.25-11.54c-1.03-3.75-6.84-2.17-5.84,1.61c2.26,8.54,0.45,17.96-2.43,26.55 c-0.93,2.78-1.97,5.48-3.03,8.03c-5.64,13.61-13.9,26.09-23.57,37.19c-15.15-13.07-25.56-31.06-27.7-51.2 c-0.45-4.27-6.39-8.45-9.82-4.07c-10.33,13.17-19.49,27.32-26.99,42.3C172.5,205.87,169.26,213.46,166.63,221.29z M189.57,319.41 c-2.22,4.04-5.04,7.15-10.01,7.28c-5.94,0.16-10.43-5.66-13.06-10.36c-1.28-2.29-2.25-4.72-3-7.23c0.49,0.28,1.09,0.27,1.57-0.34 c3.44-4.37,7.7-8.09,12.71-10.55c2.4-1.18,4.98-1.98,7.61-2.47c1.34-0.25,2.69-0.37,4.05-0.4c1.45-0.04,3.13,0.33,4.51-0.18 c0.41-0.15,0.73-0.4,1-0.69C195,303.08,193.68,311.91,189.57,319.41z M188.6,264.02c0.6,1.9,0.94,3.88,0.9,6.01 c-0.08,3.78-1.21,7.52-3.26,10.7c-2.12,3.3-5.71,6.58-9.73,7.11c-4.39,0.58-8.23-3.06-9.89-6.79c-1.32-2.97-1.64-6.25-0.83-9.29 c0.29-0.79,0.57-1.58,0.89-2.35c0.19-0.38,0.38-0.76,0.62-1.13c0.15-0.23,0.19-0.46,0.2-0.67c0.5-1.07,0.99-2.15,1.58-3.17 c1.8-3.15,4.21-6.27,7.62-7.78c3.07-1.36,5.71-0.58,8.28,0.91c0.09,0.21,0.2,0.42,0.34,0.63 C186.56,260.05,187.63,262.01,188.6,264.02z M289.42,230.56c-2.07,0.76-4.71,2-7.11,3.61c-0.81,0.55-1.57,1.14-2.29,1.77 c-0.8,0.71-1.52,1.47-2.12,2.29c-1.03,1.41-1.7,2.97-1.73,4.67c-6.87,8.73-8.06,21.51-6.86,32.22c0.22,1.97,0.52,3.93,0.89,5.86 c1.15,5.96,3.04,11.74,5.75,17.21c3.62,7.29,9.2,15.22,16.85,18.59c4.11,1.81,8.48,1.98,12.6,1c5.1-1.22,9.79-4.26,13.03-8.57 c0.05-0.06,0.11-0.12,0.16-0.18c4.15-5.65,5.89-12.59,6.02-19.5c0.02-0.91-0.03-1.84-0.06-2.76c-0.31-11.59-3.81-23.6-9.47-33.66 c-0.28-0.51-0.54-1.03-0.84-1.53c-1.16-1.95-2.49-3.84-3.94-5.62c-2.38-2.94-5.12-5.57-8.14-7.56c1.35,0.1,2.66,0.23,3.85,0.43 c0.12,0.02,0.24,0.07,0.36,0.09c2.35,0.43,4.64,1.16,6.81,2.14c3.94,1.79,7.45,4.45,10.1,7.8c2.31,2.92,3.99,6.34,4.67,10.19 c0.51,2.9,4.06,4.54,6.71,3.81c3.12-0.86,4.24-3.78,3.81-6.71c-0.54-3.62-1.81-6.97-3.6-9.99c-2.08-3.51-4.88-6.57-8.14-9.12 c-5.61-4.4-12.54-7.28-19.39-8.15C301.32,228.11,295.19,228.45,289.42,230.56z M304.28,272.88c0.11,0.1,0.22,0.22,0.35,0.3 c-0.21,0.12-0.43,0.23-0.64,0.36C304.09,273.33,304.17,273.1,304.28,272.88z M287.13,244.43c0.21,0.13,0.41,0.26,0.68,0.32 c5.31,1.29,9.54,5.37,11.27,10.54c0.01,0.04,0.02,0.08,0.03,0.12c1.8,5.5,1.37,12.85-2.24,17.59c-2.87,3.76-8.2,3.89-12.15,1.86 c-1.73-0.89-3.11-2.15-4.19-3.63c-1.92-2.63-2.85-5.97-2.92-9.31c-0.12-5.65,1.68-12.43,5.87-16.58c0.23-0.04,0.47-0.08,0.71-0.17 C285.2,244.81,286.18,244.57,287.13,244.43z M305.51,308.57c-1.32,0.54-4.97,1.01-5.24,1.01c-7.01,0-12.24-7.05-15.58-12.6 c3.39-4.15,12.79-12.83,13.53-13.43c0.67-0.54,5.78-4.16,7.74-5.31c1.44-0.85,2.9-1.66,4.4-2.4c0.9-0.45,2.02-0.84,3-1.37 c0.71,2.86,1.25,5.74,1.58,8.61C315.93,291.8,314.41,304.9,305.51,308.57z M303.03,252.27c0.03,0.04,0.06,0.07,0.08,0.11 c-0.07-0.01-0.13-0.01-0.2-0.02c-0.01,0-0.02,0-0.03,0c-0.08-0.19-0.14-0.38-0.23-0.56C302.79,251.95,302.91,252.11,303.03,252.27z M211.3,35.73c0.68,1.16,2.05,1.64,3.33,1.36c0.02,0,0.04-0.01,0.06-0.01c0.66,0.16,1.32,0.17,1.98-0.01 c0.46-0.09,0.89-0.22,1.34-0.34c0.99-0.24,1.87-0.53,2.82-0.92c1.99-0.82,4-1.63,5.97-2.5c1.72-0.77,3.45-1.54,5.17-2.31 c0.86-0.38,1.72-0.77,2.58-1.15c0.3-0.13,0.61-0.26,0.91-0.4c0.99-0.43,1.94-0.9,2.65-1.77c1.05-1.29,1.65-2.73,1.51-4.27 c-0.05-0.51-0.18-1.03-0.4-1.56c-0.3-0.71-0.81-1.33-1.4-1.87c-0.95-0.88-2.17-1.47-3.48-1.41c-1.9,0.09-3.31,0.84-4.9,1.74 c-0.82,0.46-1.63,0.92-2.45,1.39c-1.69,0.96-3.38,1.92-5.07,2.87c-1.69,0.96-3.34,1.98-5,2.99c-1.02,0.62-1.91,1.3-2.82,2.08 c-0.39,0.33-0.83,0.61-1.19,0.97c-0.36,0.37-0.58,0.78-0.76,1.2c-0.13,0.12-0.25,0.24-0.39,0.35c-0.73,0.63-0.97,1.71-0.79,2.67 C211.03,35.15,211.14,35.46,211.3,35.73z M214.13,36.86c-0.03,0-0.06,0-0.08,0C213.51,36.6,213.56,36.61,214.13,36.86z M277.76,193.49c-0.02-0.52,0.05-1.04,0.28-1.52c0,0,0.01-0.01,0.01-0.01c0.36-0.71,1-1.32,2-1.65c3.22-1.06,6.62-1.66,10.03-1.76 c0.23-0.01,0.47-0.04,0.7-0.04c1.19-0.01,2.38,0.04,3.56,0.15c1.19,0.12,2.37,0.28,3.55,0.47c1.37,0.23,2.74,0.51,4.07,0.89 c0.89,0.25,1.76,0.57,2.63,0.9c0.2,0.07,0.41,0.13,0.6,0.21c0.42,0.17,0.84,0.35,1.26,0.53c-0.01-0.01,0.11,0.04,0.31,0.12 c0.78,0.31,1.55,0.64,2.32,0.98c2.25,0.99,2.75,3.91,2,6.01c-0.08,0.21-0.15,0.43-0.26,0.62c-0.7,1.32-2.28,2.25-3.87,2.41 c-0.99,0.1-1.98-0.09-2.77-0.67c-0.93-0.69-1.88-1.3-2.9-1.84c-0.38-0.2-0.76-0.39-1.15-0.57c-0.1-0.05-0.92-0.4-1.07-0.47 c-1.89-0.74-3.82-1.32-5.81-1.68c-0.11-0.02-0.87-0.14-0.98-0.16c-0.53-0.07-1.06-0.11-1.59-0.15c-1-0.08-2-0.13-3.01-0.13 c-0.89,0-1.69,0.05-2.49,0.11c-1.13,0.09-2.24,0.23-3.4,0.46C279.36,197.19,277.82,195.36,277.76,193.49z M390.19,94.82 c-0.56-2.53,1.24-5.47,3.05-7.19c1.6-1.52,3.37-2.51,5.44-3.24c6.26-2.2,14.11,0.43,17.32,6.35c1.95,3.6,2.19,7.71,1.24,11.64 c-0.52,2.17-1.46,4.28-2.54,6.22c-0.74,1.32-1.65,2.55-2.6,3.72c-0.4,0.49-0.79,1.01-1.28,1.42c-0.49,0.4-0.99,0.84-1.53,1.17 c-0.49,0.3-1.22,0.52-1.81,0.74c-1.53,0.57-3.45-0.1-4.56-1.2c-1.25-1.25-1.53-2.88-1.2-4.56c0.4-2.06,1.69-3.68,2.76-5.42 c0.65-1.06,1.23-2.16,1.76-3.29c0.31-0.85,0.56-1.72,0.73-2.61c0.03-0.41,0.03-0.83,0.01-1.24c-0.08-0.39-0.19-0.77-0.31-1.14 c-0.14-0.25-0.28-0.5-0.44-0.75c-0.18-0.2-0.38-0.4-0.58-0.58c-0.28-0.19-0.57-0.36-0.87-0.51c-0.4-0.14-0.8-0.25-1.22-0.33 c-0.43-0.03-0.87-0.03-1.3,0c-0.47,0.1-0.92,0.22-1.37,0.37c-0.6,0.3-1.2,0.62-1.74,1.01c-0.02,0.02-0.04,0.04-0.07,0.06 c-0.28,0.25-0.57,0.52-0.89,0.72c-0.18,0.16-0.35,0.31-0.52,0.48c-0.53,0.5-1.13,0.86-1.75,1.11c-0.93,1.1-2.46,1.52-3.8,0.95 C390.62,98.07,389.78,96.41,390.19,94.82z M417.11,134.39c5.53-1.95,10.67-4.97,16.34-6.53c4.79-1.31,10.24-1.31,14.58,1.38 c3.99,2.47,6.44,7.35,6.11,12.04c-0.38,5.31-3.67,9.09-8.07,11.78c-2.23,1.37-4.8,2.35-7.33,3.01c-3.15,0.83-5.54,1.22-8.57,1 c-2.57-0.19-4.47-1.95-4.59-4.59c-0.11-2.48,2.19-4.58,4.59-4.59c4.68-0.02,8.61-0.57,12.5-2.8c0.24-0.14,0.48-0.3,0.72-0.44 c0.01,0,0.17-0.11,0.27-0.17c0.15-0.13,0.64-0.54,0.76-0.65c0.21-0.2,0.41-0.42,0.61-0.64c0.03-0.05,0.28-0.36,0.37-0.52 c0.09-0.16,0.18-0.33,0.26-0.5c0-0.01,0-0.01,0.01-0.02c0.1-0.34,0.19-0.68,0.27-1.03c0.01-0.11,0.05-0.43,0.06-0.6 c0.01-0.29-0.01-0.59-0.03-0.88c-0.01,0.1-0.13-0.77-0.19-0.99c-0.04-0.14-0.17-0.52-0.18-0.61c-0.13-0.28-0.27-0.56-0.42-0.82 c-0.09-0.16-0.2-0.31-0.3-0.47c-0.02-0.03-0.01-0.02-0.02-0.04c-0.02-0.02-0.01,0-0.04-0.03c-0.26-0.27-0.52-0.54-0.81-0.78 c-0.09-0.04-0.44-0.27-0.55-0.33c-0.76-0.42-1.16-0.57-2.14-0.82c-1.03-0.27-1.07-0.28-2.28-0.29c-0.42,0-0.83,0.01-1.25,0.04 c-0.48,0.03-0.5,0.03-0.69,0.06c-1.92,0.28-3.79,0.87-5.62,1.48c-4.26,1.41-8.4,3.06-12.77,4.1 C414.92,141.06,413.51,135.67,417.11,134.39z M269.4,326.68c-6.32-2.93-13.02-0.74-19.03,1.87c-3.12,1.36-6.16,2.91-9.42,3.9 c-4.06,1.23-7.58,0.8-11.61-0.34c-5.36-1.52-10.65-2.56-15.15-0.48c-1.62,0.75-3.13,1.92-4.51,3.62c-0.16,0.2-0.34,0.34-0.5,0.55 c-3.11,4.23-4.75,9.52-4.75,14.76c0.01,12.13,8.25,20.74,18.9,24.27c1.55,0.51,3.14,0.92,4.78,1.21c0.46,0.41,1.03,0.73,1.8,0.79 c7.36,0.53,14.93,0.73,22.05-1.53c6.54-2.08,12.41-5.81,17.12-10.8c5.36-5.67,9.9-12.95,10.06-20.98c0.06-3.22-0.74-6.53-2.25-9.43 C275.22,330.91,272.69,328.21,269.4,326.68z M265.51,358.13c-2.46,2.79-5.2,4.99-8.14,6.75c-8.06,4.83-17.65,6.19-27.47,6.09 c-0.32,0-0.57,0.08-0.83,0.15c-3.88-1.09-7.65-2.84-10.75-5.31c-2.18-1.74-4-3.84-5.31-6.28c-0.48-0.88-0.91-1.8-1.24-2.77 c-0.35-1.03-0.63-2.09-0.8-3.22c-0.54-3.74,0.07-7.69,1.74-11.08c1.19-2.42,2.88-5.08,5.72-5.62c2.73-0.52,5.68,0.54,8.36,1.39 c0.43,0.14,0.87,0.28,1.28,0.4c5.8,1.64,11.11,1.63,16.8-0.46c1.13-0.42,2.26-0.9,3.38-1.41c4.11-1.87,8.19-4.09,12.59-4.82 c0.16-0.03,0.3-0.01,0.46-0.03c3-0.37,5.63,0.48,7.59,2.2c1.73,1.52,2.97,3.68,3.46,6.31C273.59,346.96,269.67,353.4,265.51,358.13z M447.29,222.53c-6.61-12.51-22.01-32.83-38.4-26.59c-14.2-54.96-59.33-96.91-113.34-112.41c-14.72-4.22-30.25-6.27-45.46-7.67 c-15.65-1.44-31.38-1.45-46.95,0.51c0.03-3.4-0.35-6.84-0.7-10.01c-0.39-3.58-0.8-7.28-1.41-10.91c8.09,0.99,16.39,0.45,24.33-1.21 c10.62-2.22,21.43-6.68,29.14-14.53c4.59-4.67,8.82-10.33,9.14-17.13c0.29-5.99-2.7-11.84-7.01-15.85 c-9.85-9.16-23.69-8.23-34.66-1.62c-11.72,7.06-19.05,18.68-28.25,28.45c-4.38-8.79-10.32-17.22-18.17-23.09 c-8.63-6.45-20.71-8.94-30.73-4.39c-18.18,8.24-16.97,36.33,0.23,44.86c9.75,4.83,22.18,3.76,31.06-2.5c0.01,0,0.01-0.01,0.01-0.01 c0.75,0.3,1.49,0.62,2.24,0.9c2.26,0.82,4.55,1.32,6.89,1.68c0.42,0.34,0.89,0.65,1.46,0.88c1.03,0.41,2.08,0.73,3.13,1.08 c1.3,4.77,2.71,9.5,3.7,14.37c0.73,3.59,1.23,6.87,1.56,10.25c-34.95,5.93-70.17,20.99-97.01,44.27 c-30.28,26.27-51.23,63.13-57.25,102.83c-0.04,0.27,0.01,0.49,0.03,0.74c-0.67,0.31-1.21,0.88-1.38,1.78 c-1.01,5.41-1.67,10.9-2.16,16.42c-0.78-0.5-1.74-0.68-2.83-0.28c-14.21,5.29-24.25,18.42-29.63,32.15 c-6.38,16.29-5.9,34.15-1.97,50.97c4.1,17.53,11.14,35.9,20.4,51.39c7.81,13.07,19.4,22.95,34.99,24.26 c14.03,1.18,29.93-5.02,37.74-17.15c6.78,8.26,15.89,14.46,25.38,19.27c11.51,5.84,24.12,10.1,37,11.44 c10.01,1.04,20.53-0.73,30.55-1.26c14.39-0.76,28.79-1.35,43.17-2.16c15.03-0.85,29.98-1.85,44.92-3.71 c0.2-0.03,0.35-0.13,0.54-0.18c15.14-0.77,30.3-1.66,45-5.03c9.27-2.13,18.3-5.81,26.97-9.66c9.12-4.05,17.88-9.05,25.45-15.6 c1.13-0.98,2.24-2.03,3.32-3.12c0.48,0.36,1.08,0.65,1.83,0.81c32.85,6.87,65.48-14.61,75.76-45.64 C467.39,295.5,464.31,254.74,447.29,222.53z M217.18,17.91c4.42-4.02,10.23-7.96,16.33-9.51c3.18-0.81,6.43-0.97,9.6-0.14 c1.22,0.32,2.42,0.76,3.61,1.39c3.98,2.1,7.78,5.95,8.21,10.63c0.5,5.39-3.93,9.74-7.53,13.12c-1.32,1.23-2.76,2.32-4.27,3.33 c-5.64,3.77-12.4,6.08-18.87,7.53c-4.98,1.11-10.04,1.6-15.08,1.5c-1.57-0.03-3.13-0.12-4.69-0.27c-0.85-0.08-1.7-0.16-2.55-0.27 c-2.73-0.38-5.45-0.95-8.11-1.73c0.9-0.65,1.6-1.6,1.92-2.73C203.38,33.63,209.43,24.96,217.18,17.91z M186.29,41.91 c-2.24-0.61-4.49-1.28-6.67-2.02c-2.06-0.7-4.06-1.43-5.84-2.26c-2.14-1-4.22-2.14-6.23-3.38c-0.32-0.2-0.65-0.37-0.97-0.58 c-2.28-1.46-4.78-2.89-6.86-4.61c-1.47-1.21-3.56-1.44-5,0c-1.37,1.37-1.34,3.63,0,5c2.25,2.31,4.37,4.51,6.98,6.44 c2.38,1.75,4.89,3.32,7.49,4.72c-2.6,0.95-5.33,1.44-8.08,1.45c-0.82,0-1.64-0.04-2.46-0.12c-2.3-0.24-4.57-0.78-6.75-1.73 c-5.98-2.61-10.14-8.18-10.53-14.51c-0.36-5.78,1.75-11.55,6.75-14.46c0.18-0.11,0.34-0.24,0.52-0.33 c3.75-1.95,8.05-1.92,12.13-0.83c2.48,0.67,4.86,1.72,6.99,3.03c0.56,0.35,1.13,0.69,1.65,1.07c8.01,5.76,12.18,14.95,17.36,23.03 C186.61,41.83,186.44,41.85,186.29,41.91z M61.27,394.7c-14.11-0.2-24.32-9.14-31.24-20.79c-4.77-8.03-8.73-16.8-12.1-25.73 c-2.17-5.74-4.15-11.53-5.79-17.29c-1.54-5.39-2.76-10.92-3.51-16.49c-1.35-9.94-1.2-20.03,1.47-29.8 c4.12-15.1,13.1-26.58,26.72-34.01c-0.1,1.96-0.18,3.92-0.23,5.89c-0.07,2.66-0.07,5.33-0.04,8c0.07,6.03,0.34,12.06,0.84,18.08 c0.82,9.94,2.15,19.8,3.86,29.43c4.13,23.22,11.28,45.82,21,67.28c2.06,4.56,4.21,9.09,6.5,13.54c0.04,0.08,0.08,0.17,0.13,0.26 c0.18,0.35,0.43,0.57,0.66,0.82C66.86,394.43,64.1,394.74,61.27,394.7z M384.53,367.37c1.99-2.99,3.64-6.19,4.67-9.58 c0.81-2.67,1.26-5.45,1.24-8.31c-0.01-1.44-0.55-2.59-1.36-3.46c2.29-9.78,3.24-20.16,4.22-30.03c1.14-11.51,1.75-23.09,1.76-34.66 c0.01-9.66-0.43-19.25-1.27-28.8c-0.89-10.07-2.25-20.08-4.11-30.05c1.38-0.65,2.44-1.93,2.39-3.71 c-0.35-12.99-4.55-25.53-10.9-37.18c-8.94-16.39-22.18-31.02-35.29-42.6c-9.68-8.55-20.57-15.92-32.2-21.97 c-17.6-9.16-36.89-15.25-56.3-17.55c-10.2-1.21-20.35-0.93-30.31,0.58c-10.81,1.63-21.4,4.72-31.61,9.07 c-0.58,0.25-0.92,0.67-1.16,1.13c-1.03,2.04,0.9,5.47,3.49,4.4c10.19-4.2,20.66-6.7,31.19-7.77c15.81-1.6,31.76,0.11,47.15,4.46 c20.01,5.66,39.04,15.78,55.51,28.88c6.14,4.88,11.91,10.17,17.25,15.8c6.19,6.52,11.81,13.47,16.7,20.77 c7.52,11.24,13.74,23.75,16.85,36.99c0,0.04-0.01,0.07,0,0.12c1.33,8.61,2.34,17.3,3.18,26.01c-2.99-2.29-6.11-4.43-9.32-6.47 c-4.6-2.92-9.27-5.76-13.63-8.93c-9.58-6.96-18.68-14.56-27.46-22.5c-1.81-1.63-3.56-3.33-5.34-4.99 c-15.64-14.53-30.56-30.01-43.89-46.65c-1.16-1.45-3.11-0.92-4.2,0.27c-0.63,0.69-0.94,1.58-0.66,2.47c0.08,0.25,0.16,0.5,0.34,0.74 c4.25,5.61,8.63,11.11,13.09,16.54c0.62,0.75,1.26,1.48,1.88,2.23c8.54,10.28,17.52,20.17,26.99,29.61 c1.14,1.14,2.27,2.29,3.43,3.42c0.99,0.96,1.93,1.97,2.93,2.92c0.72,0.68,1.47,1.31,2.19,1.99c7.94,7.44,16.15,14.59,24.77,21.24 c6.97,5.38,14.49,11.53,22.75,15.17c1.59,0.7,3.19,1.34,4.83,1.83c0.15,0.05,0.3,0.02,0.45,0.04c0.59,0.1,1.15,0.05,1.68-0.12 c0.05,0.69,0.07,1.39,0.12,2.08c0.01,0.21,0.02,0.43,0.04,0.64c0.71,10.26,1.1,20.54,1.03,30.78c-0.08,10.98-0.63,21.95-1.69,32.88 c-0.82,8.41-2.38,16.71-3.62,25.05c-0.27,1.79-0.48,3.58-0.7,5.37c-0.73,0.62-1.35,1.41-1.65,2.55c-0.76,2.92-1.73,5.63-2.9,8.19 c-2.72,5.96-6.57,10.99-11.71,15.41c-0.1,0.08-0.2,0.17-0.3,0.26c-1.03,0.87-2.1,1.72-3.23,2.54c-6.47,4.72-13.59,8.58-20.91,11.93 c-3.17,1.45-6.37,2.84-9.58,4.12c-11.82,4.7-24.17,6.68-36.76,8.04c-5.36,0.57-10.72,1.12-16.08,1.68 c-0.43-0.11-0.87-0.22-1.42-0.18c-11.6,0.74-23.2,1.47-34.8,2.22c-14.69,0.96-29.38,1.96-44.06,3.13 c-10.39,0.83-20.75,1.82-31.12,2.86c-11.58,1.16-23.42-1.7-34.22-5.72c-0.53-0.2-1.06-0.43-1.59-0.64 c-7.13-2.78-14.26-6.45-20.54-11.15c-0.41-0.31-0.83-0.61-1.24-0.93c-3.59-2.81-6.85-5.98-9.61-9.54c-0.46-0.59-0.87-1.22-1.3-1.83 c0.01-0.13-0.01-0.27-0.02-0.4c0-0.4-0.03-0.8-0.18-1.24c-3.91-11.02-9.01-21.52-12.57-32.71c-1.15-3.6-2.2-7.23-3.21-10.87 c-1.39-5.01-2.66-10.05-3.79-15.13c-0.18-0.81-0.35-1.62-0.52-2.43c-0.54-2.51-1.06-5.02-1.54-7.54 c-4.65-24.61-6.49-50.18-3.46-75.11c1.03-8.46,2.64-17.09,4.9-25.47c1.24-0.33,2.37-1.16,2.95-2.72c1.84-5.01,4.04-9.88,6.48-14.63 c0.8-1.54,1.65-3.06,2.5-4.57c8-14.16,18.47-26.98,30.58-37.71c10.28-9.11,22.07-17.16,34.84-22.65c9.44-4.06,19.42-6.72,29.74-7.34 c3.39-0.2,4.12-4.28,2.17-5.99c-0.53-0.47-1.23-0.8-2.17-0.78c-23.6,0.52-45.85,10.65-64.43,24.83c-1.9,1.45-3.78,2.94-5.61,4.47 c-14.37,12.07-27.77,27.28-36.01,44.59c-2.38,5.01-4.31,10.2-5.73,15.54c-7.64,19.5-10.03,40.33-9.78,61.36 c0.01,0.63-0.01,1.26,0,1.89c0.2,10.06,0.99,20.14,2.32,30.15c2.13,16.15,5.64,32.13,10.29,47.67c1.07,3.58,2.17,7.26,3.35,10.97 c2.99,9.46,6.48,19.05,11.41,27.27c0.11,0.18,0.26,0.28,0.39,0.43c-2.41,2.96-5.16,5.53-8.21,7.64c-2.45,1.7-5.08,3.1-7.85,4.18 c0.26-0.83,0.25-1.78-0.25-2.76c-4.15-8.04-7.86-16.28-11.2-24.67c-6.93-17.38-12.15-35.42-15.53-53.86 c-5.06-27.57-4.62-54.79-3.23-82.63c0.69-0.3,1.25-0.91,1.43-1.95c1.02-5.93,2.39-11.79,4.06-17.55c0.89-3.06,1.87-6.08,2.93-9.08 c4.89-13.83,11.6-26.99,19.88-39.11c5.85-8.57,12.47-16.63,19.78-24.03c12.61-12.76,27.3-23.11,43.17-31.32 c1.22-0.63,2.46-1.24,3.7-1.85c14.46-7.1,29.81-12.5,45.4-16.33c3.36-0.83,6.75-1.52,10.15-2.15c0.92,2.77,5.05,2.86,6.15-0.17 c0.1-0.29,0.17-0.59,0.26-0.89c1.24-0.18,2.48-0.36,3.72-0.51c24.34-3.07,49.4-1.41,73.39,3.42c2.71,0.55,5.42,1.12,8.1,1.75 c2.53,0.59,5.04,1.26,7.54,1.98c18.48,5.36,36.09,14.31,51.47,25.74c8.39,6.24,15.97,13.27,22.69,20.96 c4.07,4.66,7.81,9.58,11.22,14.71c8.28,12.46,14.59,26.23,18.67,40.96c0.57,2.08,1.11,4.17,1.59,6.29c0.37,1.61,1.37,2.54,2.56,2.94 c-0.54,0.65-0.85,1.51-0.69,2.55c0.19,1.17,0.36,2.34,0.54,3.51c0.2,1.29,0.4,2.58,0.6,3.87c3.53,23.05,6.3,46.08,6.7,69.46 c0.24,14.14-0.32,28.3-1.88,42.36c-0.84,7.58-2,15.13-3.48,22.61c-0.4,2.05-0.88,4.08-1.38,6.11c-0.3,1.21-0.61,2.41-0.92,3.61 c-0.26,1.01-0.51,2.03-0.77,3.05c-0.68,2.66-1.31,5.32-1.84,7.99c-0.01,0.03-0.02,0.07-0.02,0.1 C394.9,367.95,389.72,367.96,384.53,367.37z M426.15,356.91c-0.5,0.35-1.03,0.64-1.53,0.97c-2.24,1.47-4.55,2.79-6.93,3.93 c-1.8,0.87-3.63,1.65-5.5,2.34c-1.26,0.46-2.54,0.86-3.82,1.24c0.77-2.53,1.43-5.12,2-7.73c0.71-3.24,1.32-6.49,1.92-9.68 c0.08-0.42,0.16-0.85,0.24-1.26c1.34-7.04,2.39-14.14,3.21-21.26c1.65-14.26,2.25-28.62,2.04-42.96c-0.01-0.36,0-0.72,0-1.08 c-0.4-22.58-2.71-45.44-7.17-67.67c-0.7-3.47-1.44-6.93-2.24-10.37c9.16-2.97,16.75,1.63,22.7,8.35c4.16,4.7,7.52,10.42,10.02,15.32 c3.33,6.53,5.97,13.47,8,20.59c1.79,6.27,3.12,12.69,3.96,19.12c0.28,2.16,0.52,4.32,0.7,6.47 C456.11,301.97,451.65,339.05,426.15,356.91z" fill="#020201"/></g></svg>